<svg width="46" height="38" viewBox="0 0 46 38" fill="none" xmlns="http://www.w3.org/2000/svg">
<path fill-rule="evenodd" clip-rule="evenodd" d="M21.4661 0.593543C21.2291 0.830528 21.2203 0.881919 21.2426 1.91786C21.2552 2.51057 21.225 3.03603 21.1755 3.08536C21.1259 3.1347 20.6008 3.2457 20.0086 3.33184C17.4119 3.70988 15.2288 4.47155 12.9118 5.808C11.2389 6.77297 10.332 7.45192 8.96201 8.76518C7.54568 10.1229 6.61075 11.3068 5.40645 13.268C5.06061 13.8313 4.39556 15.1496 4.39556 15.272C4.39556 15.2972 4.2871 15.5549 4.15456 15.8448C3.40896 17.4749 2.74567 20.4845 2.72169 22.3464C2.70515 23.634 2.75654 23.5787 1.46795 23.6964C0.491915 23.7857 0.337253 23.825 0.174956 24.0254C-0.0801388 24.3404 -0.0554713 24.6836 0.243672 24.9828C0.494558 25.2336 0.506402 25.2353 1.58962 25.1718C2.19075 25.1365 4.00401 25.0429 5.61915 24.9636C7.2343 24.8843 9.32664 24.7757 10.2688 24.7223C12.9744 24.569 13.6591 24.5337 15.0163 24.478C16.351 24.4231 18.8048 24.293 21.5258 24.1329C22.4142 24.0805 23.7827 24.0147 24.567 23.9864C25.3513 23.9581 26.3424 23.9153 26.7695 23.8914C27.1966 23.8675 28.6031 23.8014 29.8952 23.7444C31.1873 23.6875 32.9493 23.5992 33.8107 23.5482C34.6721 23.4972 35.8835 23.4303 36.5026 23.3993C37.1217 23.3684 37.8926 23.3242 38.2156 23.3011C38.5387 23.278 39.3536 23.2335 40.0266 23.2022C44.4149 22.9984 45.5977 22.8989 45.7989 22.7169C46.0619 22.4788 46.0683 21.8785 45.8102 21.6449C45.6521 21.5018 45.4529 21.4792 44.5388 21.5002C43.9425 21.514 43.4225 21.4931 43.3831 21.4537C43.3438 21.4143 43.2376 20.8889 43.1471 20.2861C42.9636 19.0624 42.9276 18.8894 42.7262 18.2603C42.6486 18.018 42.5337 17.6215 42.471 17.3793C42.4081 17.137 42.317 16.8623 42.2685 16.7688C42.2198 16.6754 42.1801 16.549 42.1801 16.4882C42.1801 16.2587 41.2488 14.1832 40.7617 13.327C40.1169 12.1937 39.5494 11.3211 39.2569 11.0132C39.1309 10.8804 38.9115 10.6177 38.7694 10.4293C38.1678 9.63128 36.9438 8.40828 35.9437 7.6057C35.1665 6.98196 33.0211 5.56945 32.3913 5.26678C29.6127 3.9316 27.0152 3.24678 24.2341 3.11639C23.3564 3.07518 22.9368 3.01635 22.8415 2.92111C22.7592 2.83888 22.7019 2.56313 22.6969 2.2265C22.6781 0.959152 22.6502 0.757406 22.4651 0.552919C22.2086 0.269535 21.7723 0.287253 21.4661 0.593543ZM13.6928 7.615C13.6916 7.68235 13.5044 8.02995 13.2768 8.38763C12.6521 9.36895 11.4437 11.6382 11.4436 11.8304C11.4435 11.8743 11.3333 12.1509 11.1987 12.4452C11.0641 12.7394 10.954 13.0361 10.954 13.1045C10.954 13.1728 10.9131 13.2707 10.8631 13.3218C10.7311 13.4567 10.1131 15.9003 9.93589 16.9877C9.78377 17.9206 9.72827 18.4762 9.63283 20.0222C9.54806 21.394 9.29717 21.584 7.53589 21.6108C6.16967 21.6317 5.92045 21.5268 5.67329 20.8273C5.48975 20.308 5.61651 19.6234 6.25728 17.6729C6.78284 16.0733 6.8957 15.7914 7.45219 14.6874C8.33719 12.9316 9.10825 11.7566 10.2787 10.3803C11.8626 8.51782 13.7028 7.02729 13.6928 7.615ZM27.2523 27.2383C25.6318 27.2774 21.3166 27.4748 19.1276 27.6099C17.3433 27.72 16.5484 27.7643 13.8906 27.9023C12.3563 27.9819 10.5723 28.09 9.9262 28.1425C9.28014 28.1949 7.49615 28.2865 5.96176 28.3459C4.42738 28.4054 3.11118 28.4738 3.03699 28.498C2.89818 28.5432 2.90826 28.703 3.11402 29.7131C3.26604 30.4599 3.6989 31.8881 3.90799 32.333C4.01733 32.5656 4.17747 32.9412 4.26381 33.1678C4.70479 34.3242 5.64842 35.9603 6.49838 37.0422C6.75749 37.3721 6.97675 37.6419 6.98566 37.6419C6.99457 37.6419 7.21932 37.5373 7.48518 37.4095C8.8421 36.7568 9.48022 36.4724 9.90965 36.3287C11.2996 35.8639 13.6228 35.5631 15.2076 35.6429C16.6816 35.717 24.4092 35.7147 25.4903 35.6398C26.6211 35.5614 27.2861 35.4276 27.9375 35.1476C28.1528 35.055 28.8136 34.7813 29.4058 34.5395C29.998 34.2977 30.5266 34.0649 30.5804 34.0222C30.6343 33.9794 31.1938 33.7209 31.8238 33.4477C32.4537 33.1745 33.0484 32.9074 33.1453 32.8543C33.3558 32.7386 34.1206 32.3917 35.9642 31.5756C36.718 31.2419 37.5549 30.865 37.8241 30.738C38.0933 30.611 38.5778 30.3898 38.9008 30.2464C39.5464 29.9597 40.3375 29.5937 41.5624 29.015C42.0034 28.8067 42.3916 28.6363 42.4252 28.6363C42.5646 28.6363 43.5374 28.1493 43.5998 28.0484C43.6371 27.9881 43.5861 27.8473 43.4867 27.7356C43.0455 27.2402 42.1856 27.1401 41.0477 27.4517C40.0669 27.7203 38.7366 28.1315 38.5093 28.2364C38.4016 28.2861 37.9611 28.4398 37.5304 28.578C36.3337 28.9619 33.7049 29.8812 33.3465 30.0413C33.1711 30.1196 32.8074 30.258 32.5382 30.3489C32.269 30.4398 31.6082 30.6675 31.0699 30.8549C29.9959 31.2289 26.6929 31.9356 25.5799 32.0298C24.7195 32.1025 24.4144 32.0336 24.2092 31.7204C23.8544 31.1789 24.1202 30.4306 24.7541 30.1861C25.0942 30.0548 26.4941 29.815 26.9324 29.8127C27.2964 29.811 29.5315 29.4541 30.92 29.1759C31.9009 28.9795 32.6325 28.6019 32.8271 28.1919C33.0174 27.791 33.0164 27.7082 32.8183 27.4059L32.6581 27.1612L30.3956 27.189C29.1514 27.2044 27.7368 27.2265 27.2523 27.2383Z" fill="#EF4444"/>
</svg>
